<svg id="Layer_1_1_" enable-background="new 0 0 64 64" height="512" viewBox="0 0 64 64" width="512" xmlns="http://www.w3.org/2000/svg"><path d="m50 51h-47v-48h37l10 10z" fill="#50b6cf"/><path d="m50 13h-10v-10z" fill="#3cadc9"/><path d="m39 35h11v16h-11z" fill="#3cadc9"/><path d="m41 37h21v24h-21z" fill="#e34e4b"/><path d="m62 61h-21v-5l21-10z" fill="#de4542"/><path d="m45 41h13v4h-13z" fill="#f5a947"/><path d="m16 17 6.36396 6.36396c-3.51472 3.51472-9.2132 3.51472-12.72792 0s-3.51472-9.2132 0-12.72792 9.2132-3.51472 12.72792 0z" fill="#f5a947"/><path d="m29.36396 10.63604c3.51472 3.51472 3.51472 9.2132 0 12.72792l-6.36396-6.36396z" fill="#f5a947"/><path d="m22 40h4v6h-4z" fill="#f5a947"/><path d="m26 34h4v12h-4z" fill="#f09d3a"/><path d="m30 37h4v9h-4z" fill="#f5a947"/><g fill="#0d0f23"><path d="m62 36h-11v-23c0-.26514-.10547-.51953-.29297-.70703l-10-10c-.1875-.1875-.44189-.29297-.70703-.29297h-37c-.55225 0-1 .44775-1 1v48c0 .55225.44775 1 1 1h37v9c0 .55225.44775 1 1 1h21c.55225 0 1-.44775 1-1v-24c0-.55225-.44775-1-1-1zm-22 1v13h-36v-46h35.58594l8 8h-6.58594v-5h-2v6c0 .55225.44775 1 1 1h9v22h-8c-.55225 0-1 .44775-1 1zm21 23h-19v-22h19z"/><path d="m45 48h3v2h-3z"/><path d="m50 48h3v2h-3z"/><path d="m55 48h3v2h-3z"/><path d="m45 52h3v2h-3z"/><path d="m50 52h3v2h-3z"/><path d="m55 52h3v2h-3z"/><path d="m45 56h3v2h-3z"/><path d="m50 56h3v2h-3z"/><path d="m55 56h3v2h-3z"/><path d="m45 46h13c.55225 0 1-.44775 1-1v-4c0-.55225-.44775-1-1-1h-13c-.55225 0-1 .44775-1 1v4c0 .55225.44775 1 1 1zm1-4h11v2h-11z"/><path d="m23.0708 22.65674-5.65674-5.65674 5.65674-5.65674c.39062-.39062.39062-1.02344 0-1.41406-1.88867-1.88916-4.3999-2.9292-7.0708-2.9292s-5.18213 1.04004-7.0708 2.9292c-1.88916 1.88867-2.9292 4.3999-2.9292 7.0708s1.04004 5.18213 2.9292 7.0708c1.88867 1.88916 4.3999 2.9292 7.0708 2.9292s5.18213-1.04004 7.0708-2.9292c.39063-.39062.39063-1.02344 0-1.41406zm-7.0708 2.34326c-2.13672 0-4.14551-.83203-5.65674-2.34326s-2.34326-3.52002-2.34326-5.65674.83203-4.14551 2.34326-5.65674 3.52002-2.34326 5.65674-2.34326c1.7998 0 3.50879.59033 4.90625 1.67969l-5.61328 5.61328c-.39062.39062-.39062 1.02344 0 1.41406l5.61328 5.61328c-1.39746 1.08936-3.10645 1.67969-4.90625 1.67969z"/><path d="m22.29297 17.70703 6.36377 6.36377c.19531.19531.45117.29297.70703.29297s.51172-.09766.70703-.29297c1.88916-1.88867 2.9292-4.3999 2.9292-7.0708s-1.04004-5.18213-2.9292-7.0708c-.39062-.39062-1.02344-.39062-1.41406 0l-6.36377 6.36377c-.39063.39062-.39063 1.02344 0 1.41406zm7.02734-5.61328c1.08936 1.39746 1.67969 3.10645 1.67969 4.90625s-.59033 3.50879-1.67969 4.90625l-4.90625-4.90625z"/><path d="m11 35h2c.55127 0 1 .44873 1 1h2c0-1.6543-1.3457-3-3-3v-2h-2v2c-1.6543 0-3 1.3457-3 3v1c0 1.6543 1.3457 3 3 3h2c.55127 0 1 .44873 1 1v1c0 .55127-.44873 1-1 1h-2c-.55127 0-1-.44873-1-1h-2c0 1.6543 1.3457 3 3 3v2h2v-2c1.6543 0 3-1.3457 3-3v-1c0-1.6543-1.3457-3-3-3h-2c-.55127 0-1-.44873-1-1v-1c0-.55127.44873-1 1-1z"/><path d="m35 37c0-.55225-.44775-1-1-1h-3v-2c0-.55225-.44775-1-1-1h-4c-.55225 0-1 .44775-1 1v5h-3c-.55225 0-1 .44775-1 1v5h-2v2h3 4 4 4 3v-2h-2zm-12 4h2v4h-2zm4-1v-5h2v2 8h-2zm4 5v-7h2v7z"/><path d="m36 18h10v2h-10z"/><path d="m36 22h10v2h-10z"/><path d="m36 26h10v2h-10z"/><path d="m36 30h2v2h-2z"/><path d="m40 30h2v2h-2z"/><path d="m44 30h2v2h-2z"/></g></svg>