<svg id="Capa_1" enable-background="new 0 0 512 512" height="512" viewBox="0 0 512 512" width="512" xmlns="http://www.w3.org/2000/svg"><g><path d="m437 0c-21.505 0-42.006 9.253-56.246 25.386-5.482 6.211-4.891 15.69 1.32 21.172v56.883c-6.211 5.482-6.802 14.961-1.32 21.172 14.24 16.134 34.741 25.387 56.246 25.387 41.355 0 75-33.645 75-75s-33.645-75-75-75z" fill="#fabe2c"/><path d="m437 120c-8.948 0-17.608-2.671-24.926-7.538v-74.924c7.318-4.867 15.978-7.538 24.926-7.538 24.813 0 45 20.187 45 45s-20.187 45-45 45z" fill="#ff9100"/><g><path d="m105 240c-41.355 0-75-33.645-75-75s33.645-75 75-75 75 33.645 75 75-33.645 75-75 75z" fill="#fed843"/><circle cx="105" cy="165" fill="#fabe2c" r="45"/></g><g><path d="m347 150c-41.355 0-75-33.645-75-75s33.645-75 75-75 75 33.645 75 75-33.645 75-75 75z" fill="#fed843"/><circle cx="347" cy="75" fill="#fabe2c" r="45"/></g><g><circle cx="105" cy="165" fill="#fed843" r="15"/></g><g><circle cx="347" cy="75" fill="#fed843" r="15"/></g><path d="m422 255v90c0 6.63-4.36 12.48-10.72 14.38l-140.28 41.8v95.82c0 8.28-6.72 15-15 15s-15-6.72-15-15v-86.88l-131.72 39.26c-9.6 2.86-19.28-4.35-19.28-14.38v-90c0-8.28 6.72-15 15-15s15 6.72 15 15v69.88c7.24-2.16 71.63-21.35 136-40.53 64.42-19.2 128.84-38.39 136-40.53v-78.82c0-8.28 6.72-15 15-15s15 6.72 15 15z" fill="#fed843"/><path d="m422 255v90c0 6.63-4.36 12.48-10.72 14.38l-140.28 41.8v95.82c0 8.28-6.72 15-15 15v-137.65c64.42-19.2 128.84-38.39 136-40.53v-78.82c0-8.28 6.72-15 15-15s15 6.72 15 15z" fill="#fabe2c"/><g><path d="m331 497c0 8.28-6.72 15-15 15h-120c-8.28 0-15-6.72-15-15s6.72-15 15-15h120c8.28 0 15 6.72 15 15z" fill="#fed843"/></g><path d="m331 497c0 8.28-6.72 15-15 15h-60v-30h60c8.28 0 15 6.72 15 15z" fill="#fabe2c"/><g><g><path d="m165 360h-120c-24.813 0-45-20.187-45-45v-30c0-8.284 6.716-15 15-15h180c8.284 0 15 6.716 15 15v30c0 24.813-20.187 45-45 45z" fill="#fabe2c"/></g></g><g><g><path d="m467 270h-120c-24.813 0-45-20.187-45-45v-30c0-8.284 6.716-15 15-15h180c8.284 0 15 6.716 15 15v30c0 24.813-20.187 45-45 45z" fill="#ff9100"/></g></g></g></svg>